Coordinates
nRows=7
nColumns=38

# SIMM Motion File Header:
name Coordinates
datacolumns 38
datarows 7
otherdata 1
range 1.55837000000000000000 1.56437000000000000000

Units are S.I. units (second, meters, Newtons, ...)
Angles are in degrees.

endheader
time	pelvis_tilt	pelvis_list	pelvis_rotation	pelvis_tx	pelvis_ty	pelvis_tz	hip_flexion_r	hip_adduction_r	hip_rotation_r	knee_angle_r	ankle_angle_r	subtalar_angle_r	mtp_angle_r	hip_flexion_l	hip_adduction_l	hip_rotation_l	knee_angle_l	ankle_angle_l	subtalar_angle_l	mtp_angle_l	lumbar_extension	lumbar_bending	lumbar_rotation	arm_flex_r	arm_add_r	arm_rot_r	elbow_flex_r	pro_sup_r	wrist_flex_r	wrist_dev_r	arm_flex_l	arm_add_l	arm_rot_l	elbow_flex_l	pro_sup_l	wrist_flex_l	wrist_dev_l
      1.55837000000000000000	     -0.00656889185943368770	      6.92577547825322880000	      3.51210306144939510000	      0.88964306424081574000	      1.04918386575538160000	     -0.32095772668646061000	     31.09372757481575200000	     -4.00127385036919670000	      4.73944199354184370000	    -86.27053737397960700000	     11.02857010081144800000	     -0.00000000000002429437	      0.00000000000014222155	     11.11755543653755900000	     11.44523983014694000000	      0.85612679057030960000	    -41.62160599843173300000	     27.15131041876319200000	     -0.00000000000005073918	      0.00000000000007485690	    -17.37948729439108700000	     -8.97600670755229400000	    -16.49243701549194800000	    -22.22665155020672900000	    -19.24418950937042200000	      8.40855839472803090000	     83.00481527554409000000	    104.48182356433135000000	     -0.00000000000002372666	      0.00000000000001121697	     -8.51389116765034260000	    -22.78643849808659300000	      2.10538420202159450000	    105.48859562477519000000	    102.71673886119696000000	      0.00000000000000837792	     -0.00000000000004858568
      1.55937000000000010000	     -0.02663477070768592200	      6.86372198369997570000	      3.51746346914494450000	      0.88967189660381252000	      1.04953570126910290000	     -0.32095541230840668000	     31.20177225067926600000	     -3.95022142251179260000	      4.70523796423874160000	    -86.02735506038689600000	     11.08089731154675800000	     -0.00000000000002433515	      0.00000000000014261199	     10.92575970689204800000	     11.39364401686350300000	      0.94295130883750233000	    -41.46141245896443200000	     27.12301858369493600000	     -0.00000000000005090649	      0.00000000000007531037	    -17.33498118832001100000	     -8.89599824617956080000	    -16.57151993477098600000	    -22.40301552400047700000	    -19.31942834858528700000	      8.43087225933347640000	     83.09887060945486300000	    104.45250326527481000000	     -0.00000000000002381755	      0.00000000000001126641	     -8.53836749514176850000	    -22.77027253288843100000	      2.00285057597279530000	    105.68087185290992000000	    102.67301249904321000000	      0.00000000000000838412	     -0.00000000000004874716
      1.56037000000000000000	     -0.04663035643793075900	      6.80086432961634110000	      3.52157957500285290000	      0.88970334708491461000	      1.04989349375113550000	     -0.32094994958264306000	     31.30775670125773000000	     -3.89781552523662890000	      4.67102181270291790000	    -85.77955053670378000000	     11.13179542920383000000	     -0.00000000000002437746	      0.00000000000014300235	     10.73287115360658600000	     11.34073038028667700000	      1.02913187306827500000	    -41.29838675824135700000	     27.09195610469070600000	     -0.00000000000005110261	      0.00000000000007582880	    -17.29007654758537500000	     -8.81543647208334490000	    -16.64778767454912500000	    -22.58031612244300500000	    -19.39472150875074900000	      8.45080372625534970000	     83.19443853736278500000	    104.42988226406305000000	     -0.00000000000002390621	      0.00000000000001132556	     -8.56226160785628390000	    -22.75366060055720800000	      1.90206297763161340000	    105.87254285343889000000	    102.62842461679828000000	      0.00000000000000839051	     -0.00000000000004890748
      1.56137000000000010000	     -0.06660610218370886800	      6.73720610025116520000	      3.52443765890177740000	      0.88973729662573220000	      1.05025708909553360000	     -0.32094126331515416000	     31.41175011197701700000	     -3.84403974512287360000	      4.63682080785371480000	    -85.52714104730843300000	     11.18122036680074900000	     -0.00000000000002442577	      0.00000000000014339317	     10.53900471697889600000	     11.28649344513232900000	      1.11460379359894610000	    -41.13261691444468200000	     27.05808932767873600000	     -0.00000000000005129537	      0.00000000000007633301	    -17.24475181995059700000	     -8.73434677174977740000	    -16.72125259261175900000	    -22.75847587567370700000	    -19.47003431367511400000	      8.46839240460231400000	     83.29134214235465100000	    104.41369165096236000000	     -0.00000000000002399180	      0.00000000000001138421	     -8.58558373859706410000	    -22.73660132825596800000	      1.80303986801140680000	    106.06357445384369000000	    102.58304811779327000000	      0.00000000000000839622	     -0.00000000000004906648
      1.56237000000000000000	     -0.08661575341655948500	      6.67275141468922150000	      3.52602737648812780000	      0.88977363031492274000	      1.05062632338230630000	     -0.32092928379749208000	     31.51382484820236100000	     -3.78888080240535490000	      4.60265900269640490000	    -85.27014539032515500000	     11.22913082929382300000	     -0.00000000000002447848	      0.00000000000014378516	     10.34427981718085100000	     11.23092949379401900000	      1.19930450116958640000	    -40.96419646746468100000	     27.02138620139594100000	     -0.00000000000005149492	      0.00000000000007680992	    -17.19898076003963200000	     -8.65275446257936130000	    -16.79193323103923100000	    -22.93742009855365900000	    -19.54533512591245500000	      8.48368401001192220000	     83.38941429399876900000	    104.40364193649857000000	     -0.00000000000002408083	      0.00000000000001144437	     -8.60835147655961740000	    -22.71909463443146000000	      1.70579562454341690000	    106.25393959686618000000	    102.53694815107885000000	      0.00000000000000840206	     -0.00000000000004922403
      1.56337000000000010000	     -0.10671598313012830000	      6.60750488640830900000	      3.52634176584344370000	      0.88981223782028551000	      1.05100102355245720000	     -0.32091394715449628000	     31.61405592773964600000	     -3.73232857489038050000	      4.56855704197239470000	    -85.00858377832439300000	     11.27548830436360200000	     -0.00000000000002452984	      0.00000000000014417746	     10.14881978071868200000	     11.17403644830167600000	      1.28317359566080920000	    -40.79322420740940200000	     26.98181694521936800000	     -0.00000000000005169500	      0.00000000000007730313	    -17.15273269927009600000	     -8.57068461093614250000	    -16.85985411176551800000	    -23.11707705542571000000	    -19.62059544315657100000	      8.49673011062417770000	     83.48849777196551300000	    104.39942442382346000000	     -0.00000000000002417230	      0.00000000000001150580	     -8.63058939563496350000	    -22.70114160681803700000	      1.61034055553206730000	    106.44361784994540000000	    102.49018267208184000000	      0.00000000000000840801	     -0.00000000000004938066
      1.56437000000000000000	     -0.12696596862203280000	      6.54147158091357910000	      3.52537725291326160000	      0.88985301385563453000	      1.05138100810671500000	     -0.32089519569444747000	     31.71252042383672200000	     -3.67437611592408550000	      4.53453196401333520000	    -84.74247768090973000000	     11.32025706129127400000	     -0.00000000000002458342	      0.00000000000014456906	      9.95275119332156950000	     11.11581373426466800000	      1.36615289583467560000	    -40.61980381987260100000	     26.93935398768275400000	     -0.00000000000005190476	      0.00000000000007780581	    -17.10597287746644900000	     -8.48816184279948160000	    -16.92504553457010300000	    -23.29737811647832400000	    -19.69578998838663300000	      8.50758787436469710000	     83.58844539035342800000	    104.40071258026408000000	     -0.00000000000002426221	      0.00000000000001156911	     -8.65232867366588110000	    -22.68274438262263700000	      1.51668091798228310000	    106.63259491805584000000	    102.44280299899164000000	      0.00000000000000841420	     -0.00000000000004953459
